<svg xmlns="http://www.w3.org/2000/svg" viewBox="0 0 960 470" role="img" aria-labelledby="title desc">
  <title id="title">온톨로지 계층이 직접 연결을 상위 범주 질의 결과로 확장하는 과정</title>
  <desc id="desc">내분비계 이상 상위 개념 아래에 갑상선, 췌장, 포도당 대사 이상 하위 개념이 있고, 질병은 이 하위 표현형에 직접 연결되어 있지만 상위 범주 질의에서는 추론으로 포함된다.</desc>
  <defs>
    <marker id="arrow" viewBox="0 0 10 10" refX="9" refY="5" markerWidth="8" markerHeight="8" orient="auto"><path d="M0 0 10 5 0 10Z" fill="#63728a"/></marker>
    <style>
      text{font-family:system-ui,-apple-system,BlinkMacSystemFont,"Segoe UI",sans-serif;fill:#172033}
      .eyebrow{font-size:13px;font-weight:800;letter-spacing:1.2px;fill:#52647d}
      .head{font-size:18px;font-weight:800}
      .small{font-size:13px;fill:#56657a}
      .node{fill:#fff;stroke:#8294ad;stroke-width:2}
      .parent{fill:#0f2c59;stroke:#0f2c59}
      .disease{fill:#e3ebf5;stroke:#0f2c59;stroke-width:2}
      .tree{fill:none;stroke:#7b8ba3;stroke-width:3;marker-end:url(#arrow)}
      .direct{fill:none;stroke:#0f2c59;stroke-width:4;marker-end:url(#arrow)}
      .infer{fill:none;stroke:#0f2c59;stroke-width:3;stroke-dasharray:8 6;marker-end:url(#arrow)}
    </style>
  </defs>
  <rect width="960" height="470" rx="20" fill="#f7f8fa"/>
  <text x="52" y="43" class="eyebrow">ONTOLOGY HIERARCHY</text>
  <text x="708" y="43" class="eyebrow">QUERY RESULT</text>
  <rect class="parent" x="307" y="68" width="300" height="72" rx="16"/>
  <text x="457" y="98" class="head" text-anchor="middle" style="fill:#fff">Abnormality of endocrine system</text>
  <text x="457" y="122" class="small" text-anchor="middle" style="fill:#dce6f2">HP:0000818 · 상위 범주</text>

  <path class="tree" d="M457 140V181H194V217"/><path class="tree" d="M457 181V217"/><path class="tree" d="M457 181H720V217"/>
  <rect class="node" x="78" y="220" width="232" height="69" rx="14"/>
  <text x="194" y="248" class="head" text-anchor="middle">Thyroid abnormality</text><text x="194" y="272" class="small" text-anchor="middle">subClassOf</text>
  <rect class="node" x="341" y="220" width="232" height="69" rx="14"/>
  <text x="457" y="248" class="head" text-anchor="middle">Pancreas abnormality</text><text x="457" y="272" class="small" text-anchor="middle">subClassOf</text>
  <rect class="node" x="604" y="220" width="232" height="69" rx="14"/>
  <text x="720" y="248" class="head" text-anchor="middle">Glucose metabolism</text><text x="720" y="272" class="small" text-anchor="middle">subClassOf</text>

  <rect class="disease" x="72" y="351" width="274" height="69" rx="15"/>
  <text x="209" y="380" class="head" text-anchor="middle">Disease A</text><text x="209" y="403" class="small" text-anchor="middle">하위 표현형에 직접 주석</text>
  <path class="direct" d="M209 351V297"/>

  <rect class="disease" x="652" y="351" width="236" height="69" rx="15"/>
  <text x="770" y="380" class="head" text-anchor="middle">상위 범주 질의</text><text x="770" y="403" class="small" text-anchor="middle">Disease A 포함</text>
  <path class="infer" d="M346 385C485 385 546 385 644 385"/>
  <text x="496" y="371" class="small" text-anchor="middle">계층 경로로 암시적 포함</text>
  <text x="480" y="451" class="small" text-anchor="middle">추론은 새 임상 사실을 생성하지 않는다. 이미 저장된 주석을 온톨로지의 상·하위 관계를 따라 더 넓은 질의 범위에 포함한다.</text>
</svg>
